<?xml version="1.0" encoding="utf-8"?>
<svg xmlns="http://www.w3.org/2000/svg" xmlns:xlink="http://www.w3.org/1999/xlink" style="margin: auto; background: none; display: block; shape-rendering: auto;" width="304px" height="304px" viewBox="0 0 100 100" preserveAspectRatio="xMidYMid">
<g transform="rotate(0 50 50)">
  <rect x="47" y="22.5" rx="2.97" ry="2.97" width="6" height="11" fill="#ff0000">
    <animate attributeName="opacity" values="1;0" keyTimes="0;1" dur="0.9174311926605504s" begin="-0.856269113149847s" repeatCount="indefinite"></animate>
  </rect>
</g><g transform="rotate(24 50 50)">
  <rect x="47" y="22.5" rx="2.97" ry="2.97" width="6" height="11" fill="#ff0000">
    <animate attributeName="opacity" values="1;0" keyTimes="0;1" dur="0.9174311926605504s" begin="-0.7951070336391437s" repeatCount="indefinite"></animate>
  </rect>
</g><g transform="rotate(48 50 50)">
  <rect x="47" y="22.5" rx="2.97" ry="2.97" width="6" height="11" fill="#ff0000">
    <animate attributeName="opacity" values="1;0" keyTimes="0;1" dur="0.9174311926605504s" begin="-0.7339449541284403s" repeatCount="indefinite"></animate>
  </rect>
</g><g transform="rotate(72 50 50)">
  <rect x="47" y="22.5" rx="2.97" ry="2.97" width="6" height="11" fill="#ff0000">
    <animate attributeName="opacity" values="1;0" keyTimes="0;1" dur="0.9174311926605504s" begin="-0.6727828746177369s" repeatCount="indefinite"></animate>
  </rect>
</g><g transform="rotate(96 50 50)">
  <rect x="47" y="22.5" rx="2.97" ry="2.97" width="6" height="11" fill="#ff0000">
    <animate attributeName="opacity" values="1;0" keyTimes="0;1" dur="0.9174311926605504s" begin="-0.6116207951070336s" repeatCount="indefinite"></animate>
  </rect>
</g><g transform="rotate(120 50 50)">
  <rect x="47" y="22.5" rx="2.97" ry="2.97" width="6" height="11" fill="#ff0000">
    <animate attributeName="opacity" values="1;0" keyTimes="0;1" dur="0.9174311926605504s" begin="-0.5504587155963302s" repeatCount="indefinite"></animate>
  </rect>
</g><g transform="rotate(144 50 50)">
  <rect x="47" y="22.5" rx="2.97" ry="2.97" width="6" height="11" fill="#ff0000">
    <animate attributeName="opacity" values="1;0" keyTimes="0;1" dur="0.9174311926605504s" begin="-0.48929663608562685s" repeatCount="indefinite"></animate>
  </rect>
</g><g transform="rotate(168 50 50)">
  <rect x="47" y="22.5" rx="2.97" ry="2.97" width="6" height="11" fill="#ff0000">
    <animate attributeName="opacity" values="1;0" keyTimes="0;1" dur="0.9174311926605504s" begin="-0.4281345565749235s" repeatCount="indefinite"></animate>
  </rect>
</g><g transform="rotate(192 50 50)">
  <rect x="47" y="22.5" rx="2.97" ry="2.97" width="6" height="11" fill="#ff0000">
    <animate attributeName="opacity" values="1;0" keyTimes="0;1" dur="0.9174311926605504s" begin="-0.36697247706422015s" repeatCount="indefinite"></animate>
  </rect>
</g><g transform="rotate(216 50 50)">
  <rect x="47" y="22.5" rx="2.97" ry="2.97" width="6" height="11" fill="#ff0000">
    <animate attributeName="opacity" values="1;0" keyTimes="0;1" dur="0.9174311926605504s" begin="-0.3058103975535168s" repeatCount="indefinite"></animate>
  </rect>
</g><g transform="rotate(240 50 50)">
  <rect x="47" y="22.5" rx="2.97" ry="2.97" width="6" height="11" fill="#ff0000">
    <animate attributeName="opacity" values="1;0" keyTimes="0;1" dur="0.9174311926605504s" begin="-0.24464831804281342s" repeatCount="indefinite"></animate>
  </rect>
</g><g transform="rotate(264 50 50)">
  <rect x="47" y="22.5" rx="2.97" ry="2.97" width="6" height="11" fill="#ff0000">
    <animate attributeName="opacity" values="1;0" keyTimes="0;1" dur="0.9174311926605504s" begin="-0.18348623853211007s" repeatCount="indefinite"></animate>
  </rect>
</g><g transform="rotate(288 50 50)">
  <rect x="47" y="22.5" rx="2.97" ry="2.97" width="6" height="11" fill="#ff0000">
    <animate attributeName="opacity" values="1;0" keyTimes="0;1" dur="0.9174311926605504s" begin="-0.12232415902140671s" repeatCount="indefinite"></animate>
  </rect>
</g><g transform="rotate(312 50 50)">
  <rect x="47" y="22.5" rx="2.97" ry="2.97" width="6" height="11" fill="#ff0000">
    <animate attributeName="opacity" values="1;0" keyTimes="0;1" dur="0.9174311926605504s" begin="-0.061162079510703356s" repeatCount="indefinite"></animate>
  </rect>
</g><g transform="rotate(336 50 50)">
  <rect x="47" y="22.5" rx="2.97" ry="2.97" width="6" height="11" fill="#ff0000">
    <animate attributeName="opacity" values="1;0" keyTimes="0;1" dur="0.9174311926605504s" begin="0s" repeatCount="indefinite"></animate>
  </rect>
</g>
<!-- [ldio] generated by https://loading.io/ --></svg>